<svg width="90" height="54" viewBox="0 0 90 54" fill="none" xmlns="http://www.w3.org/2000/svg">
<g filter="url(#filter0_d)">
<path fill-rule="evenodd" clip-rule="evenodd" d="M15 14C15 10.6863 17.6863 8 21 8H69C72.3137 8 75 10.6863 75 14V14.1327C72.8811 15.1204 71.4004 17.3758 71.4004 20C71.4004 22.6243 72.8811 24.8796 75 25.8673V26C75 29.3137 72.3137 32 69 32H21C17.6863 32 15 29.3137 15 26V25.8673C17.1189 24.8796 18.5996 22.6243 18.5996 20C18.5996 17.3758 17.1189 15.1204 15 14.1327V14Z" fill="url(#paint0_linear)"/>
<line x1="17" y1="28.66" x2="74" y2="28.66" stroke="white" stroke-opacity="0.25" stroke-dasharray="4 4"/>
<line x1="17" y1="11.5" x2="74" y2="11.5" stroke="white" stroke-opacity="0.25" stroke-dasharray="4 4"/>
<path d="M35.5275 14.9683H37.1758V24.5837H35.2802V16.9738L33.467 17.482L33 15.8612L35.5275 14.9683Z" fill="white"/>
<path d="M43.1747 24.776C41.9751 24.776 41.0319 24.3227 40.345 23.4161C39.6674 22.5004 39.3286 21.287 39.3286 19.776C39.3286 18.265 39.6674 17.0562 40.345 16.1496C41.0319 15.2339 41.9751 14.776 43.1747 14.776C44.3835 14.776 45.3267 15.2339 46.0044 16.1496C46.682 17.0562 47.0209 18.265 47.0209 19.776C47.0209 21.287 46.682 22.5004 46.0044 23.4161C45.3267 24.3227 44.3835 24.776 43.1747 24.776ZM41.7187 22.1249C42.0483 22.656 42.5337 22.9216 43.1747 22.9216C43.8157 22.9216 44.3011 22.6515 44.6308 22.1112C44.9696 21.5709 45.139 20.7925 45.139 19.776C45.139 18.7504 44.9696 17.9674 44.6308 17.4271C44.3011 16.8868 43.8157 16.6167 43.1747 16.6167C42.5337 16.6167 42.0483 16.8868 41.7187 17.4271C41.389 17.9674 41.2242 18.7504 41.2242 19.776C41.2242 20.8016 41.389 21.5846 41.7187 22.1249Z" fill="white"/>
<path d="M52.5138 24.776C51.3141 24.776 50.3709 24.3227 49.6841 23.4161C49.0064 22.5004 48.6676 21.287 48.6676 19.776C48.6676 18.265 49.0064 17.0562 49.6841 16.1496C50.3709 15.2339 51.3141 14.776 52.5138 14.776C53.7225 14.776 54.6658 15.2339 55.3434 16.1496C56.0211 17.0562 56.3599 18.265 56.3599 19.776C56.3599 21.287 56.0211 22.5004 55.3434 23.4161C54.6658 24.3227 53.7225 24.776 52.5138 24.776ZM51.0577 22.1249C51.3874 22.656 51.8727 22.9216 52.5138 22.9216C53.1548 22.9216 53.6401 22.6515 53.9698 22.1112C54.3086 21.5709 54.478 20.7925 54.478 19.776C54.478 18.7504 54.3086 17.9674 53.9698 17.4271C53.6401 16.8868 53.1548 16.6167 52.5138 16.6167C51.8727 16.6167 51.3874 16.8868 51.0577 17.4271C50.728 17.9674 50.5632 18.7504 50.5632 19.776C50.5632 20.8016 50.728 21.5846 51.0577 22.1249Z" fill="white"/>
</g>
<defs>
<filter id="filter0_d" x="0" y="0" width="90" height="54" filterUnits="userSpaceOnUse" color-interpolation-filters="sRGB">
<feFlood flood-opacity="0" result="BackgroundImageFix"/>
<feColorMatrix in="SourceAlpha" type="matrix" values="0 0 0 0 0 0 0 0 0 0 0 0 0 0 0 0 0 0 127 0"/>
<feOffset dy="7"/>
<feGaussianBlur stdDeviation="7.5"/>
<feColorMatrix type="matrix" values="0 0 0 0 0.619608 0 0 0 0 0.0705882 0 0 0 0 0.0823529 0 0 0 0.25 0"/>
<feBlend mode="normal" in2="BackgroundImageFix" result="effect1_dropShadow"/>
<feBlend mode="normal" in="SourceGraphic" in2="effect1_dropShadow" result="shape"/>
</filter>
<linearGradient id="paint0_linear" x1="15" y1="21.2" x2="63.4616" y2="0.97799" gradientUnits="userSpaceOnUse">
<stop stop-color="#EE2B31"/>
<stop offset="1" stop-color="#9E1215"/>
</linearGradient>
</defs>
</svg>
