<svg width="90" height="54" viewBox="0 0 90 54" fill="none" xmlns="http://www.w3.org/2000/svg">
<g filter="url(#filter0_d)">
<path fill-rule="evenodd" clip-rule="evenodd" d="M15 14C15 10.6863 17.6863 8 21 8H69C72.3137 8 75 10.6863 75 14V14.1327C72.8811 15.1204 71.4004 17.3758 71.4004 20C71.4004 22.6243 72.8811 24.8796 75 25.8673V26C75 29.3137 72.3137 32 69 32H21C17.6863 32 15 29.3137 15 26V25.8673C17.1189 24.8796 18.5996 22.6243 18.5996 20C18.5996 17.3758 17.1189 15.1204 15 14.1327V14Z" fill="url(#paint0_linear)"/>
<line x1="17" y1="28.66" x2="74" y2="28.66" stroke="white" stroke-opacity="0.25" stroke-dasharray="4 4"/>
<line x1="17" y1="11.5" x2="74" y2="11.5" stroke="white" stroke-opacity="0.25" stroke-dasharray="4 4"/>
<path d="M29.5275 15.1923H31.1758V24.8077H29.2802V17.1978L27.467 17.706L27 16.0852L29.5275 15.1923Z" fill="white"/>
<path d="M41.2956 25C40.096 25 39.1527 24.5467 38.4659 23.6401C37.7883 22.7244 37.4494 21.511 37.4494 20C37.4494 18.489 37.7883 17.2802 38.4659 16.3736C39.1527 15.4579 40.096 15 41.2956 15C42.5044 15 43.4476 15.4579 44.1253 16.3736C44.8029 17.2802 45.1417 18.489 45.1417 20C45.1417 21.511 44.8029 22.7244 44.1253 23.6401C43.4476 24.5467 42.5044 25 41.2956 25ZM39.8395 22.3489C40.1692 22.88 40.6546 23.1456 41.2956 23.1456C41.9366 23.1456 42.422 22.8755 42.7516 22.3352C43.0905 21.7949 43.2599 21.0165 43.2599 20C43.2599 18.9744 43.0905 18.1914 42.7516 17.6511C42.422 17.1108 41.9366 16.8407 41.2956 16.8407C40.6546 16.8407 40.1692 17.1108 39.8395 17.6511C39.5099 18.1914 39.345 18.9744 39.345 20C39.345 21.0256 39.5099 21.8086 39.8395 22.3489Z" fill="white"/>
<path d="M50.6346 25C49.435 25 48.4918 24.5467 47.805 23.6401C47.1273 22.7244 46.7885 21.511 46.7885 20C46.7885 18.489 47.1273 17.2802 47.805 16.3736C48.4918 15.4579 49.435 15 50.6346 15C51.8434 15 52.7866 15.4579 53.4643 16.3736C54.142 17.2802 54.4808 18.489 54.4808 20C54.4808 21.511 54.142 22.7244 53.4643 23.6401C52.7866 24.5467 51.8434 25 50.6346 25ZM49.1786 22.3489C49.5083 22.88 49.9936 23.1456 50.6346 23.1456C51.2757 23.1456 51.761 22.8755 52.0907 22.3352C52.4295 21.7949 52.5989 21.0165 52.5989 20C52.5989 18.9744 52.4295 18.1914 52.0907 17.6511C51.761 17.1108 51.2757 16.8407 50.6346 16.8407C49.9936 16.8407 49.5083 17.1108 49.1786 17.6511C48.8489 18.1914 48.6841 18.9744 48.6841 20C48.6841 21.0256 48.8489 21.8086 49.1786 22.3489Z" fill="white"/>
<path d="M59.9737 25C58.774 25 57.8308 24.5467 57.144 23.6401C56.4664 22.7244 56.1275 21.511 56.1275 20C56.1275 18.489 56.4664 17.2802 57.144 16.3736C57.8308 15.4579 58.774 15 59.9737 15C61.1825 15 62.1257 15.4579 62.8034 16.3736C63.481 17.2802 63.8198 18.489 63.8198 20C63.8198 21.511 63.481 22.7244 62.8034 23.6401C62.1257 24.5467 61.1825 25 59.9737 25ZM58.5176 22.3489C58.8473 22.88 59.3327 23.1456 59.9737 23.1456C60.6147 23.1456 61.1001 22.8755 61.4297 22.3352C61.7686 21.7949 61.938 21.0165 61.938 20C61.938 18.9744 61.7686 18.1914 61.4297 17.6511C61.1001 17.1108 60.6147 16.8407 59.9737 16.8407C59.3327 16.8407 58.8473 17.1108 58.5176 17.6511C58.188 18.1914 58.0231 18.9744 58.0231 20C58.0231 21.0256 58.188 21.8086 58.5176 22.3489Z" fill="white"/>
</g>
<defs>
<filter id="filter0_d" x="0" y="0" width="90" height="54" filterUnits="userSpaceOnUse" color-interpolation-filters="sRGB">
<feFlood flood-opacity="0" result="BackgroundImageFix"/>
<feColorMatrix in="SourceAlpha" type="matrix" values="0 0 0 0 0 0 0 0 0 0 0 0 0 0 0 0 0 0 127 0"/>
<feOffset dy="7"/>
<feGaussianBlur stdDeviation="7.5"/>
<feColorMatrix type="matrix" values="0 0 0 0 0.0470588 0 0 0 0 0.447059 0 0 0 0 0.752941 0 0 0 0.25 0"/>
<feBlend mode="normal" in2="BackgroundImageFix" result="effect1_dropShadow"/>
<feBlend mode="normal" in="SourceGraphic" in2="effect1_dropShadow" result="shape"/>
</filter>
<linearGradient id="paint0_linear" x1="15.6383" y1="9.79999" x2="77.908" y2="16.2501" gradientUnits="userSpaceOnUse">
<stop stop-color="#0F8DEB"/>
<stop offset="1" stop-color="#0C72C0"/>
</linearGradient>
</defs>
</svg>
