<svg width="90" height="54" viewBox="0 0 90 54" fill="none" xmlns="http://www.w3.org/2000/svg">
<g filter="url(#filter0_d)">
<path fill-rule="evenodd" clip-rule="evenodd" d="M15 14C15 10.6863 17.6863 8 21 8H69C72.3137 8 75 10.6863 75 14V14.1327C72.8811 15.1204 71.4004 17.3758 71.4004 20C71.4004 22.6243 72.8811 24.8796 75 25.8673V26C75 29.3137 72.3137 32 69 32H21C17.6863 32 15 29.3137 15 26V25.8673C17.1189 24.8796 18.5996 22.6243 18.5996 20C18.5996 17.3758 17.1189 15.1204 15 14.1327V14Z" fill="url(#paint0_linear)"/>
<line x1="17" y1="28.66" x2="74" y2="28.66" stroke="white" stroke-opacity="0.25" stroke-dasharray="4 4"/>
<line x1="17" y1="11.5" x2="74" y2="11.5" stroke="white" stroke-opacity="0.25" stroke-dasharray="4 4"/>
<path d="M34.0663 24.8077V23.3929L37.2373 20.0137C37.9449 19.2445 38.2987 18.6035 38.2987 18.0907C38.2987 17.7152 38.1837 17.413 37.9537 17.1841C37.7326 16.9551 37.4452 16.8407 37.0914 16.8407C36.3926 16.8407 35.8752 17.2161 35.539 17.967L34 17.033C34.2919 16.3736 34.712 15.87 35.2604 15.522C35.8088 15.174 36.4103 15 37.0648 15C37.9051 15 38.626 15.2747 39.2274 15.8242C39.8289 16.3645 40.1296 17.0971 40.1296 18.022C40.1296 19.0201 39.621 20.0458 38.6039 21.0989L36.7862 22.9808H40.2756V24.8077H34.0663Z" fill="white"/>
<path d="M44.9664 18.6951C45.8597 18.6951 46.6116 18.9744 47.2219 19.533C47.8322 20.0824 48.1374 20.8516 48.1374 21.8407C48.1374 22.8297 47.8145 23.6035 47.1688 24.1621C46.532 24.7207 45.7492 25 44.8205 25C44.0686 25 43.4052 24.826 42.8303 24.478C42.2554 24.13 41.8397 23.6172 41.5832 22.9396L43.1487 21.9918C43.3787 22.761 43.9359 23.1456 44.8205 23.1456C45.2892 23.1456 45.6519 23.0311 45.9084 22.8022C46.1737 22.5641 46.3064 22.2436 46.3064 21.8407C46.3064 21.4469 46.1782 21.131 45.9217 20.8929C45.6652 20.6548 45.3158 20.5357 44.8735 20.5357H42.0608L42.4323 15.1923H47.6995V16.9643H44.1305L44.0111 18.6951H44.9664Z" fill="white"/>
<path d="M53.2851 25C52.1264 25 51.2153 24.5467 50.5519 23.6401C49.8974 22.7244 49.5701 21.511 49.5701 20C49.5701 18.489 49.8974 17.2802 50.5519 16.3736C51.2153 15.4579 52.1264 15 53.2851 15C54.4526 15 55.3637 15.4579 56.0182 16.3736C56.6727 17.2802 57 18.489 57 20C57 21.511 56.6727 22.7244 56.0182 23.6401C55.3637 24.5467 54.4526 25 53.2851 25ZM51.8787 22.3489C52.1971 22.88 52.6659 23.1456 53.2851 23.1456C53.9042 23.1456 54.373 22.8755 54.6914 22.3352C55.0187 21.7949 55.1823 21.0165 55.1823 20C55.1823 18.9744 55.0187 18.1914 54.6914 17.6511C54.373 17.1108 53.9042 16.8407 53.2851 16.8407C52.6659 16.8407 52.1971 17.1108 51.8787 17.6511C51.5603 18.1914 51.4011 18.9744 51.4011 20C51.4011 21.0256 51.5603 21.8086 51.8787 22.3489Z" fill="white"/>
</g>
<defs>
<filter id="filter0_d" x="0" y="0" width="90" height="54" filterUnits="userSpaceOnUse" color-interpolation-filters="sRGB">
<feFlood flood-opacity="0" result="BackgroundImageFix"/>
<feColorMatrix in="SourceAlpha" type="matrix" values="0 0 0 0 0 0 0 0 0 0 0 0 0 0 0 0 0 0 127 0"/>
<feOffset dy="7"/>
<feGaussianBlur stdDeviation="7.5"/>
<feColorMatrix type="matrix" values="0 0 0 0 0.8 0 0 0 0 0.372549 0 0 0 0 0 0 0 0 0.25 0"/>
<feBlend mode="normal" in2="BackgroundImageFix" result="effect1_dropShadow"/>
<feBlend mode="normal" in="SourceGraphic" in2="effect1_dropShadow" result="shape"/>
</filter>
<linearGradient id="paint0_linear" x1="15" y1="25.6" x2="66.824" y2="9.3812" gradientUnits="userSpaceOnUse">
<stop stop-color="#F77400"/>
<stop offset="1" stop-color="#CC5F00"/>
</linearGradient>
</defs>
</svg>
