<svg width="90" height="54" viewBox="0 0 90 54" fill="none" xmlns="http://www.w3.org/2000/svg">
<g filter="url(#filter0_d)">
<path fill-rule="evenodd" clip-rule="evenodd" d="M15 14C15 10.6863 17.6863 8 21 8H69C72.3137 8 75 10.6863 75 14V14.1327C72.8811 15.1204 71.4004 17.3758 71.4004 20C71.4004 22.6243 72.8811 24.8796 75 25.8673V26C75 29.3137 72.3137 32 69 32H21C17.6863 32 15 29.3137 15 26V25.8673C17.1189 24.8796 18.5996 22.6243 18.5996 20C18.5996 17.3758 17.1189 15.1204 15 14.1327V14Z" fill="url(#paint0_linear)"/>
<line x1="17" y1="28.66" x2="74" y2="28.66" stroke="white" stroke-opacity="0.25" stroke-dasharray="4 4"/>
<line x1="17" y1="11.5" x2="74" y2="11.5" stroke="white" stroke-opacity="0.25" stroke-dasharray="4 4"/>
<path d="M40.5027 18.4711C41.4277 18.4711 42.206 18.7504 42.8379 19.309C43.4698 19.8584 43.7857 20.6276 43.7857 21.6167C43.7857 22.6057 43.4515 23.3795 42.783 23.9381C42.1236 24.4967 41.3132 24.776 40.3516 24.776C39.5733 24.776 38.8864 24.602 38.2912 24.254C37.696 23.906 37.2656 23.3932 37 22.7156L38.6209 21.7678C38.859 22.537 39.4359 22.9216 40.3516 22.9216C40.837 22.9216 41.2125 22.8071 41.478 22.5782C41.7527 22.3401 41.8901 22.0196 41.8901 21.6167C41.8901 21.2229 41.7573 20.907 41.4918 20.6689C41.2262 20.4308 40.8645 20.3117 40.4066 20.3117H37.4945L37.8791 14.9683H43.3324V16.7403H39.6374L39.5137 18.4711H40.5027Z" fill="white"/>
<path d="M49.1153 24.776C47.9156 24.776 46.9724 24.3227 46.2856 23.4161C45.608 22.5004 45.2691 21.287 45.2691 19.776C45.2691 18.265 45.608 17.0562 46.2856 16.1496C46.9724 15.2339 47.9156 14.776 49.1153 14.776C50.3241 14.776 51.2673 15.2339 51.9449 16.1496C52.6226 17.0562 52.9614 18.265 52.9614 19.776C52.9614 21.287 52.6226 22.5004 51.9449 23.4161C51.2673 24.3227 50.3241 24.776 49.1153 24.776ZM47.6592 22.1249C47.9889 22.656 48.4742 22.9216 49.1153 22.9216C49.7563 22.9216 50.2416 22.6515 50.5713 22.1112C50.9101 21.5709 51.0796 20.7925 51.0796 19.776C51.0796 18.7504 50.9101 17.9674 50.5713 17.4271C50.2416 16.8868 49.7563 16.6167 49.1153 16.6167C48.4742 16.6167 47.9889 16.8868 47.6592 17.4271C47.3296 17.9674 47.1647 18.7504 47.1647 19.776C47.1647 20.8016 47.3296 21.5846 47.6592 22.1249Z" fill="white"/>
</g>
<defs>
<filter id="filter0_d" x="0" y="0" width="90" height="54" filterUnits="userSpaceOnUse" color-interpolation-filters="sRGB">
<feFlood flood-opacity="0" result="BackgroundImageFix"/>
<feColorMatrix in="SourceAlpha" type="matrix" values="0 0 0 0 0 0 0 0 0 0 0 0 0 0 0 0 0 0 127 0"/>
<feOffset dy="7"/>
<feGaussianBlur stdDeviation="7.5"/>
<feColorMatrix type="matrix" values="0 0 0 0 0.309804 0 0 0 0 0.054902 0 0 0 0 0.745098 0 0 0 0.25 0"/>
<feBlend mode="normal" in2="BackgroundImageFix" result="effect1_dropShadow"/>
<feBlend mode="normal" in="SourceGraphic" in2="effect1_dropShadow" result="shape"/>
</filter>
<linearGradient id="paint0_linear" x1="15" y1="21.2" x2="63.4616" y2="0.97799" gradientUnits="userSpaceOnUse">
<stop stop-color="#6112EA"/>
<stop offset="1" stop-color="#4F0EBE"/>
</linearGradient>
</defs>
</svg>
