<svg width="90" height="54" viewBox="0 0 90 54" fill="none" xmlns="http://www.w3.org/2000/svg">
<g filter="url(#filter0_d)">
<path fill-rule="evenodd" clip-rule="evenodd" d="M15 14C15 10.6863 17.6863 8 21 8H69C72.3137 8 75 10.6863 75 14V14.1327C72.8811 15.1204 71.4004 17.3758 71.4004 20C71.4004 22.6243 72.8811 24.8796 75 25.8673V26C75 29.3137 72.3137 32 69 32H21C17.6863 32 15 29.3137 15 26V25.8673C17.1189 24.8796 18.5996 22.6243 18.5996 20C18.5996 17.3758 17.1189 15.1204 15 14.1327V14Z" fill="url(#paint0_linear)"/>
<line x1="17" y1="28.66" x2="74" y2="28.66" stroke="white" stroke-opacity="0.25" stroke-dasharray="4 4"/>
<line x1="17" y1="11.5" x2="74" y2="11.5" stroke="white" stroke-opacity="0.25" stroke-dasharray="4 4"/>
<path d="M35.5027 18.755C36.4277 18.755 37.206 19.0343 37.8379 19.5929C38.4698 20.1424 38.7857 20.9116 38.7857 21.9006C38.7857 22.8896 38.4515 23.6634 37.783 24.222C37.1236 24.7806 36.3132 25.0599 35.3516 25.0599C34.5733 25.0599 33.8864 24.8859 33.2912 24.538C32.696 24.19 32.2656 23.6772 32 22.9995L33.6209 22.0517C33.859 22.8209 34.4359 23.2055 35.3516 23.2055C35.837 23.2055 36.2125 23.0911 36.478 22.8621C36.7527 22.624 36.8901 22.3035 36.8901 21.9006C36.8901 21.5068 36.7573 21.1909 36.4918 20.9528C36.2262 20.7147 35.8645 20.5956 35.4066 20.5956H32.4945L32.8791 15.2522H38.3324V17.0242H34.6374L34.5137 18.755H35.5027Z" fill="white"/>
<path d="M44.1153 25.0599C42.9156 25.0599 41.9724 24.6066 41.2856 23.7C40.608 22.7843 40.2691 21.5709 40.2691 20.0599C40.2691 18.5489 40.608 17.3402 41.2856 16.4336C41.9724 15.5178 42.9156 15.0599 44.1153 15.0599C45.3241 15.0599 46.2673 15.5178 46.9449 16.4336C47.6226 17.3402 47.9614 18.5489 47.9614 20.0599C47.9614 21.5709 47.6226 22.7843 46.9449 23.7C46.2673 24.6066 45.3241 25.0599 44.1153 25.0599ZM42.6592 22.4088C42.9889 22.94 43.4743 23.2055 44.1153 23.2055C44.7563 23.2055 45.2417 22.9354 45.5713 22.3951C45.9101 21.8548 46.0796 21.0764 46.0796 20.0599C46.0796 19.0343 45.9101 18.2513 45.5713 17.711C45.2417 17.1707 44.7563 16.9006 44.1153 16.9006C43.4743 16.9006 42.9889 17.1707 42.6592 17.711C42.3296 18.2513 42.1647 19.0343 42.1647 20.0599C42.1647 21.0856 42.3296 21.8685 42.6592 22.4088Z" fill="white"/>
<path d="M53.4543 25.0599C52.2547 25.0599 51.3115 24.6066 50.6247 23.7C49.947 22.7843 49.6082 21.5709 49.6082 20.0599C49.6082 18.5489 49.947 17.3402 50.6247 16.4336C51.3115 15.5178 52.2547 15.0599 53.4543 15.0599C54.6631 15.0599 55.6063 15.5178 56.284 16.4336C56.9617 17.3402 57.3005 18.5489 57.3005 20.0599C57.3005 21.5709 56.9617 22.7843 56.284 23.7C55.6063 24.6066 54.6631 25.0599 53.4543 25.0599ZM51.9983 22.4088C52.328 22.94 52.8133 23.2055 53.4543 23.2055C54.0953 23.2055 54.5807 22.9354 54.9104 22.3951C55.2492 21.8548 55.4186 21.0764 55.4186 20.0599C55.4186 19.0343 55.2492 18.2513 54.9104 17.711C54.5807 17.1707 54.0953 16.9006 53.4543 16.9006C52.8133 16.9006 52.328 17.1707 51.9983 17.711C51.6686 18.2513 51.5038 19.0343 51.5038 20.0599C51.5038 21.0856 51.6686 21.8685 51.9983 22.4088Z" fill="white"/>
</g>
<defs>
<filter id="filter0_d" x="0" y="0" width="90" height="54" filterUnits="userSpaceOnUse" color-interpolation-filters="sRGB">
<feFlood flood-opacity="0" result="BackgroundImageFix"/>
<feColorMatrix in="SourceAlpha" type="matrix" values="0 0 0 0 0 0 0 0 0 0 0 0 0 0 0 0 0 0 127 0"/>
<feOffset dy="7"/>
<feGaussianBlur stdDeviation="7.5"/>
<feColorMatrix type="matrix" values="0 0 0 0 0.0156863 0 0 0 0 0.498039 0 0 0 0 0.286275 0 0 0 0.25 0"/>
<feBlend mode="normal" in2="BackgroundImageFix" result="effect1_dropShadow"/>
<feBlend mode="normal" in="SourceGraphic" in2="effect1_dropShadow" result="shape"/>
</filter>
<linearGradient id="paint0_linear" x1="15.6383" y1="10.16" x2="78.1107" y2="15.5526" gradientUnits="userSpaceOnUse">
<stop stop-color="#047F49"/>
<stop offset="1" stop-color="#07B96F"/>
</linearGradient>
</defs>
</svg>
